<mxfile host="app.diagrams.net" modified="2023-11-19T08:32:36.779Z" agent="Mozilla/5.0 (Macintosh; Intel Mac OS X 10_15_7) AppleWebKit/605.1.15 (KHTML, like Gecko) Version/15.6.1 Safari/605.1.15" etag="hNONwsoV7oA6kYF7bStH" version="22.1.3" type="github">
  <diagram name="Page-1" id="v7xutADrPvSlWDG-Qe2h">
    <mxGraphModel dx="1242" dy="827" grid="1" gridSize="10" guides="1" tooltips="1" connect="1" arrows="1" fold="1" page="1" pageScale="1" pageWidth="850" pageHeight="1100" math="0" shadow="0">
      <root>
        <mxCell id="0" />
        <mxCell id="1" parent="0" />
        <mxCell id="LxwEZDpvYzbkcjAbOT_N-13" value="&lt;h1&gt;&lt;font face=&quot;Lucida Console&quot;&gt;B&lt;/font&gt;&lt;/h1&gt;" style="ellipse;whiteSpace=wrap;html=1;aspect=fixed;" vertex="1" parent="1">
          <mxGeometry x="410" y="260" width="60" height="60" as="geometry" />
        </mxCell>
        <mxCell id="LxwEZDpvYzbkcjAbOT_N-2" value="&lt;h1&gt;&lt;font face=&quot;Lucida Console&quot;&gt;A&lt;/font&gt;&lt;/h1&gt;" style="ellipse;whiteSpace=wrap;html=1;aspect=fixed;" vertex="1" parent="1">
          <mxGeometry x="200" y="260" width="60" height="60" as="geometry" />
        </mxCell>
        <mxCell id="LxwEZDpvYzbkcjAbOT_N-11" value="" style="endArrow=classic;html=1;curved=1;exitX=0.65;exitY=-0.017;exitDx=0;exitDy=0;exitPerimeter=0;entryX=0;entryY=0;entryDx=0;entryDy=0;" edge="1" parent="1" source="LxwEZDpvYzbkcjAbOT_N-2" target="LxwEZDpvYzbkcjAbOT_N-2">
          <mxGeometry relative="1" as="geometry">
            <mxPoint x="220" y="260" as="sourcePoint" />
            <mxPoint x="190" y="270" as="targetPoint" />
            <Array as="points">
              <mxPoint x="220" y="150" />
            </Array>
          </mxGeometry>
        </mxCell>
        <mxCell id="LxwEZDpvYzbkcjAbOT_N-12" value="&lt;font size=&quot;1&quot; face=&quot;Lucida Console&quot;&gt;&lt;b style=&quot;font-size: 14px;&quot;&gt;0.2&lt;/b&gt;&lt;/font&gt;" style="edgeLabel;resizable=0;html=1;align=center;verticalAlign=middle;" connectable="0" vertex="1" parent="LxwEZDpvYzbkcjAbOT_N-11">
          <mxGeometry relative="1" as="geometry">
            <mxPoint y="36" as="offset" />
          </mxGeometry>
        </mxCell>
        <mxCell id="LxwEZDpvYzbkcjAbOT_N-21" value="" style="endArrow=classic;html=1;curved=1;exitX=0.65;exitY=-0.017;exitDx=0;exitDy=0;exitPerimeter=0;entryX=0;entryY=0;entryDx=0;entryDy=0;" edge="1" parent="1">
          <mxGeometry relative="1" as="geometry">
            <mxPoint x="430" y="259" as="sourcePoint" />
            <mxPoint x="460" y="269" as="targetPoint" />
            <Array as="points">
              <mxPoint x="449" y="150" />
            </Array>
          </mxGeometry>
        </mxCell>
        <mxCell id="LxwEZDpvYzbkcjAbOT_N-22" value="&lt;font size=&quot;1&quot; face=&quot;Lucida Console&quot;&gt;&lt;b style=&quot;font-size: 14px;&quot;&gt;0.4&lt;/b&gt;&lt;/font&gt;" style="edgeLabel;resizable=0;html=1;align=center;verticalAlign=middle;" connectable="0" vertex="1" parent="LxwEZDpvYzbkcjAbOT_N-21">
          <mxGeometry relative="1" as="geometry">
            <mxPoint y="36" as="offset" />
          </mxGeometry>
        </mxCell>
        <mxCell id="LxwEZDpvYzbkcjAbOT_N-27" value="" style="endArrow=classic;html=1;entryX=0;entryY=0;entryDx=0;entryDy=0;exitX=1;exitY=0;exitDx=0;exitDy=0;curved=1;" edge="1" parent="1" source="LxwEZDpvYzbkcjAbOT_N-2" target="LxwEZDpvYzbkcjAbOT_N-13">
          <mxGeometry relative="1" as="geometry">
            <mxPoint x="260" y="269" as="sourcePoint" />
            <mxPoint x="350" y="270" as="targetPoint" />
            <Array as="points">
              <mxPoint x="330" y="200" />
            </Array>
          </mxGeometry>
        </mxCell>
        <mxCell id="LxwEZDpvYzbkcjAbOT_N-28" value="&lt;font style=&quot;font-size: 14px;&quot;&gt;0.8&lt;/font&gt;" style="edgeLabel;resizable=0;html=1;align=center;verticalAlign=middle;fontStyle=1;fontFamily=Lucida Console;fontSize=14;" connectable="0" vertex="1" parent="LxwEZDpvYzbkcjAbOT_N-27">
          <mxGeometry relative="1" as="geometry">
            <mxPoint x="7" y="18" as="offset" />
          </mxGeometry>
        </mxCell>
        <mxCell id="LxwEZDpvYzbkcjAbOT_N-29" value="" style="endArrow=classic;html=1;entryX=0;entryY=0;entryDx=0;entryDy=0;exitX=1;exitY=0;exitDx=0;exitDy=0;curved=1;" edge="1" parent="1">
          <mxGeometry relative="1" as="geometry">
            <mxPoint x="418" y="310" as="sourcePoint" />
            <mxPoint x="250" y="310" as="targetPoint" />
            <Array as="points">
              <mxPoint x="339" y="379" />
            </Array>
          </mxGeometry>
        </mxCell>
        <mxCell id="LxwEZDpvYzbkcjAbOT_N-30" value="&lt;font style=&quot;font-size: 14px;&quot;&gt;0.6&lt;/font&gt;" style="edgeLabel;resizable=0;html=1;align=center;verticalAlign=middle;fontStyle=1;fontFamily=Lucida Console;" connectable="0" vertex="1" parent="LxwEZDpvYzbkcjAbOT_N-29">
          <mxGeometry relative="1" as="geometry">
            <mxPoint x="4" y="-16" as="offset" />
          </mxGeometry>
        </mxCell>
      </root>
    </mxGraphModel>
  </diagram>
</mxfile>
